<svg height="512pt" viewBox="0 0 512 512" width="512pt" xmlns="http://www.w3.org/2000/svg"><path d="m260.339844 0h34.710937c9.585938 0 17.355469 7.769531 17.355469 17.355469v17.355469h-69.421875v-17.355469c0-9.585938 7.769531-17.355469 17.355469-17.355469zm0 0" fill="#e64c3c"/><path d="m208.269531 138.847656h138.847657v34.710938h-138.847657zm0 0" fill="#e64c3c"/><path d="m347.117188 125.832031v13.015625h-138.847657v-13.015625c-.015625-5.761719 2.261719-11.289062 6.335938-15.363281 4.070312-4.070312 9.601562-6.351562 15.359375-6.332031 5.753906 0 11.273437-2.285157 15.34375-6.355469 4.066406-4.070312 6.351562-9.585938 6.351562-15.339844v-47.730468h52.070313v47.730468c-.019531 5.757813 2.257812 11.289063 6.332031 15.359375 4.074219 4.074219 9.601562 6.351563 15.359375 6.335938 11.984375 0 21.695313 9.710937 21.695313 21.695312zm0 0" fill="#bdc3c7"/><path d="m208.269531 8.679688v164.878906h-164.878906v-156.203125c21.117187-3.390625 42.679687-2.863281 63.609375 1.5625 19.785156 4.859375 38.53125 14.925781 59.445312 13.277343 16.398438-1.214843 34.101563-8.070312 41.824219-23.515624zm0 0" fill="#f29c1f"/><path d="m78.101562 69.421875c0 4.792969-3.886718 8.679687-8.679687 8.679687h-26.03125v-17.355468h26.03125c4.792969 0 8.679687 3.886718 8.679687 8.675781zm0 0" fill="#e57e25"/><path d="m173.558594 78.101562h-69.421875c-4.792969 0-8.679688-3.886718-8.679688-8.679687 0-4.789063 3.886719-8.675781 8.679688-8.675781h69.421875c4.792968 0 8.679687 3.886718 8.679687 8.675781 0 4.792969-3.886719 8.679687-8.679687 8.679687zm0 0" fill="#e57e25"/><path d="m86.78125 104.136719h78.101562c4.792969 0 8.675782 3.882812 8.675782 8.675781v60.746094h-95.457032v-60.746094c0-4.792969 3.886719-8.675781 8.679688-8.675781zm0 0" fill="#d25627"/><path d="m347.117188 173.238281c6.25-35.578125 17.460937-72.296875 40.578124-100.734375 13.425782-16.488281 37.523438-39.285156 59.609376-23.847656 9.042968 7.886719 14.734374 18.921875 15.917968 30.859375 5.515625 27.113281 7.109375 54.875 4.738282 82.441406-.28125 3.898438-.625 7.785157-1.042969 11.664063zm0 0" fill="#cb8252"/><path d="m406.449219 182.238281c-.710938 0-1.417969-.085937-2.109375-.253906-2.234375-.554687-4.152344-1.980469-5.339844-3.953125-1.183594-1.972656-1.535156-4.339844-.976562-6.570312l17.355468-69.425782c.707032-3.054687 3.011719-5.488281 6.019532-6.367187 3.011718-.882813 6.261718-.070313 8.503906 2.125 2.242187 2.191406 3.125 5.421875 2.3125 8.453125l-17.355469 69.421875c-.96875 3.859375-4.433594 6.566406-8.410156 6.570312zm0 0" fill="#805333"/><path d="m432.484375 147.527344c-.710937 0-1.417969-.085938-2.109375-.253906l-34.710938-8.675782c-4.652343-1.160156-7.484374-5.871094-6.324218-10.523437 1.160156-4.652344 5.871094-7.480469 10.523437-6.324219l34.710938 8.679688c4.246093 1.066406 7.035156 5.125 6.503906 9.472656-.53125 4.34375-4.214844 7.613281-8.59375 7.625zm0 0" fill="#805333"/><path d="m439.453125 443.488281c3.746094-3.617187 6.265625-8.320312 7.203125-13.441406l39.308594-204.417969h-451.253906l39.3125 204.417969c.9375 5.121094 3.457031 9.824219 7.203124 13.441406l82.785157 7.808594h192.652343zm0 0" fill="#b0d3f0"/><path d="m26.035156 173.558594h468.609375c9.585938 0 17.355469 7.769531 17.355469 17.355468v17.355469c0 9.585938-7.769531 17.359375-17.355469 17.359375h-468.609375c-9.585937 0-17.355468-7.773437-17.355468-17.359375v-17.355469c0-9.585937 7.769531-17.355468 17.355468-17.355468zm0 0" fill="#90bae1"/><g fill="#2c3e50"><path d="m121.492188 511.871094h-69.425782c-4.792968 0-8.675781-3.886719-8.675781-8.679688 0-4.792968 3.882813-8.675781 8.675781-8.675781h69.425782c4.792968 0 8.675781 3.882813 8.675781 8.675781 0 4.792969-3.882813 8.679688-8.675781 8.679688zm0 0"/><path d="m17.355469 512h-8.675781c-4.792969 0-8.679688-3.886719-8.679688-8.679688 0-4.789062 3.886719-8.675781 8.679688-8.675781h8.675781c4.792969 0 8.679687 3.886719 8.679687 8.675781 0 4.792969-3.886718 8.679688-8.679687 8.679688zm0 0"/><path d="m399.1875 511.871094h-69.425781c-4.792969 0-8.675781-3.886719-8.675781-8.679688 0-4.792968 3.882812-8.675781 8.675781-8.675781h69.425781c4.792969 0 8.675781 3.882813 8.675781 8.675781 0 4.792969-3.882812 8.679688-8.675781 8.679688zm0 0"/><path d="m295.050781 512h-8.679687c-4.789063 0-8.675782-3.886719-8.675782-8.679688 0-4.789062 3.886719-8.675781 8.675782-8.675781h8.679687c4.792969 0 8.679688 3.886719 8.679688 8.675781 0 4.792969-3.886719 8.679688-8.679688 8.679688zm0 0"/></g><path d="m99.570312 260.339844h24.222657c8.636719 0 15.957031 6.347656 17.179687 14.898437l12.402344 86.78125c.710938 4.980469-.773438 10.023438-4.070312 13.828125-3.296876 3.800782-8.082032 5.984375-13.113282 5.984375h-18.023437c-8.183594 0-15.257813-5.71875-16.972657-13.722656l-18.597656-86.777344c-1.097656-5.125.179688-10.472656 3.472656-14.550781 3.296876-4.074219 8.257813-6.441406 13.5-6.441406zm0 0" fill="#285680"/><path d="m193.570312 260.339844h32.058594c9.582032 0 17.355469 7.769531 17.355469 17.355468v86.777344c0 9.585938-7.773437 17.359375-17.355469 17.359375h-19.65625c-8.636718 0-15.960937-6.351562-17.183594-14.902343l-12.402343-86.777344c-.710938-4.984375.773437-10.027344 4.070312-13.828125s8.082031-5.984375 13.113281-5.984375zm0 0" fill="#285680"/><path d="m421.105469 260.339844h-24.21875c-8.636719 0-15.960938 6.347656-17.183594 14.898437l-12.398437 86.78125c-.714844 4.980469.773437 10.023438 4.070312 13.828125 3.296875 3.800782 8.078125 5.984375 13.109375 5.984375h18.027344c8.183593 0 15.257812-5.71875 16.972656-13.722656l18.597656-86.777344c1.097657-5.125-.179687-10.472656-3.476562-14.550781-3.296875-4.074219-8.257813-6.441406-13.5-6.441406zm0 0" fill="#285680"/><path d="m327.105469 260.339844h-32.054688c-9.585937 0-17.355469 7.769531-17.355469 17.355468v86.777344c0 9.585938 7.769532 17.359375 17.355469 17.359375h19.65625c8.636719 0 15.960938-6.351562 17.183594-14.902343l12.398437-86.777344c.710938-4.984375-.773437-10.027344-4.070312-13.828125s-8.078125-5.984375-13.113281-5.984375zm0 0" fill="#285680"/><path d="m199.59375 425.21875h-17.355469c-4.792969 0-8.679687-3.882812-8.679687-8.675781s3.886718-8.679688 8.679687-8.679688h17.355469c4.792969 0 8.675781 3.886719 8.675781 8.679688s-3.882812 8.675781-8.675781 8.675781zm0 0" fill="#90bae1"/><path d="m338.441406 425.21875h-104.136718c-4.792969 0-8.675782-3.882812-8.675782-8.675781s3.882813-8.679688 8.675782-8.679688h104.136718c4.792969 0 8.675782 3.886719 8.675782 8.679688s-3.882813 8.675781-8.675782 8.675781zm0 0" fill="#90bae1"/><path d="m121.492188 511.871094c-28.757813 0-52.070313-23.3125-52.070313-52.070313 0-28.753906 23.3125-52.066406 52.070313-52.066406 28.753906 0 52.066406 23.3125 52.066406 52.066406-.03125 28.742188-23.324219 52.035157-52.066406 52.070313zm0 0" fill="#2c3e50"/><path d="m121.492188 503.0625c-23.890626 0-43.261719-19.367188-43.261719-43.261719 0-23.890625 19.371093-43.257812 43.261719-43.257812 23.890624 0 43.257812 19.367187 43.257812 43.257812-.023438 23.882813-19.375 43.238281-43.257812 43.261719zm0 0" fill="#35495e"/><path d="m121.492188 485.707031c-14.308594 0-25.90625-11.597656-25.90625-25.90625 0-14.304687 11.597656-25.902343 25.90625-25.902343 14.304687 0 25.902343 11.597656 25.902343 25.902343-.011719 14.300781-11.601562 25.890625-25.902343 25.90625zm0 0" fill="#95a5a5"/><path d="m399.1875 511.871094c-28.757812 0-52.070312-23.3125-52.070312-52.070313 0-28.753906 23.3125-52.066406 52.070312-52.066406 28.753906 0 52.066406 23.3125 52.066406 52.066406-.03125 28.742188-23.324218 52.035157-52.066406 52.070313zm0 0" fill="#2c3e50"/><path d="m399.316406 503.0625c-23.890625 0-43.257812-19.367188-43.257812-43.261719 0-23.890625 19.367187-43.257812 43.257812-43.257812s43.261719 19.367187 43.261719 43.257812c-.027344 23.882813-19.378906 43.238281-43.261719 43.261719zm0 0" fill="#35495e"/><path d="m399.316406 485.964844c-14.304687 0-25.902344-11.597656-25.902344-25.902344s11.597657-25.902344 25.902344-25.902344c14.304688 0 25.902344 11.597656 25.902344 25.902344-.011719 14.300781-11.601562 25.890625-25.902344 25.902344zm0 0" fill="#95a5a5"/></svg>