<svg height="496pt" viewBox="0 0 496 496.033" width="496pt" xmlns="http://www.w3.org/2000/svg"><path d="m359.957031 192.050781c.054688-92.832031-75.175781-168.078125-168-168.015625-92.152343-.0625-166.992187 74.21875-167.898437 166.199219l-.054688.050781v1.703125c0 72.96875 46.503906 135.078125 111.550782 158.28125 17.585937 6.269531 36.65625 9.71875 56.457031 9.710938.566406.015625 1.136719.015625 1.695312.015625l.066407-.0625c91.964843-.90625 166.238281-75.746094 166.183593-167.882813zm0 0" fill="#5d9cec"/><path d="m191.957031 24.035156c-4.066406 0-8.058593.3125-12.050781.59375 87.210938 6.128906 156.089844 78.640625 156.023438 167.421875.066406 89.167969-69.542969 161.914063-157.382813 167.351563 4.449219.363281 8.921875.585937 13.464844.578125.566406.015625 1.136719.015625 1.695312.015625l.066407-.0625c91.964843-.90625 166.238281-75.746094 166.183593-167.882813.054688-92.832031-75.175781-168.078125-168-168.015625zm0 0" fill="#4a89dc"/><path d="m360.082031 382.691406-44.160156-44.160156c4.074219-3.359375 8-6.960938 11.832031-10.808594 3.839844-3.757812 7.449219-7.679687 10.808594-11.75l44.082031 44.078125zm0 0" fill="#ccd1d9"/><path d="m382.714844 360.050781 11.28125-11.351562 92.640625 92.722656c12.480469 12.484375 12.488281 32.71875 0 45.191406-12.480469 12.558594-32.722657 12.558594-45.28125.007813l-92.640625-92.640625 11.367187-11.289063 22.554688-22.632812zm0 0" fill="#656d78"/><path d="m382.714844 360.050781-.078125.007813-5.617188 5.632812 92.632813 92.710938c9.480468 9.496094 11.710937 23.449218 6.78125 35.089844 3.707031-1.578126 7.1875-3.832032 10.203125-6.871094 12.488281-12.480469 12.480469-32.714844 0-45.191406l-92.640625-92.722657zm0 0" fill="#434a54"/><path d="m56.242188 56.21875c74.953124-74.949219 196.554687-74.964844 271.511718 0 71.121094 71.203125 74.800782 184.328125 10.800782 259.761719-3.359376 4.070312-6.960938 7.992187-10.808594 11.75-3.832032 3.839843-7.757813 7.449219-11.832032 10.808593-75.367187 64.089844-188.566406 60.410157-259.679687-10.800781-74.957031-74.949219-74.957031-196.46875.007813-271.519531zm255.761718 253.273438c64.390625-65.671876 63.992188-171.113282-1.207031-236.214844-65.59375-65.6875-172-65.6875-237.59375-.015625-65.199219 65.125-65.601563 170.558593-1.199219 236.238281v.078125c.40625.410156.808594.808594 1.207032 1.203125 51.59375 51.589844 128.390624 62.628906 190.800781 33.039062 16.871093-8 32.800781-19.046874 46.792969-33.046874.398437-.394532.796874-.792969 1.199218-1.195313zm0 0" fill="#e6e9ed"/><path d="m312.019531 191.972656c0-12-6.878906-22.402344-16.878906-27.601562 6.078125-9.589844 6.800781-21.910156.800781-32.398438-6-10.480468-17.195312-15.921875-28.402344-15.441406.402344-11.277344-5.039062-22.488281-15.511718-28.488281-10.488282-6-22.808594-5.269531-32.320313.808593-5.28125-10-15.679687-16.878906-27.679687-16.878906s-22.40625 6.878906-27.601563 16.878906c-9.519531-6-21.917969-6.808593-32.398437-.71875-10.40625 5.910157-15.917969 17.121094-15.449219 28.398438-11.269531-.488281-22.480469 5.039062-28.480469 15.441406-6 10.488282-5.277344 22.808594.800782 32.398438-10 5.199218-16.871094 15.519531-16.871094 27.601562 0 12.078125 6.871094 22.398438 16.871094 27.679688-6.078126 9.449218-6.800782 21.839844-.800782 32.320312 6 10.398438 17.203125 16 28.402344 15.519532-.402344 11.28125 5.039062 22.398437 15.519531 28.398437 10.480469 6.082031 22.871094 5.28125 32.398438-.796875 5.195312 10.078125 15.601562 16.871094 27.601562 16.871094s22.480469-6.800782 27.679688-16.871094c9.511719 6.078125 21.832031 6.871094 32.320312.796875 10.480469-6 16-17.117187 15.511719-28.398437 11.28125.480468 22.398438-5.039063 28.398438-15.519532 6.089843-10.480468 5.28125-22.871094-.796876-32.320312 10.007813-5.359375 16.886719-15.679688 16.886719-27.679688zm0 0" fill="#ffce54"/><g fill="#ed5565"><path d="m160.003906 184.011719c-13.230468 0-24-10.769531-24-24s10.769532-24 24-24c13.230469 0 24 10.769531 24 24s-10.769531 24-24 24zm0-32c-4.417968 0-8 3.585937-8 8 0 4.417969 3.582032 8 8 8 4.414063 0 8-3.582031 8-8 0-4.414063-3.585937-8-8-8zm0 0"/><path d="m224.003906 248.011719c-13.230468 0-24-10.769531-24-24s10.769532-24 24-24c13.230469 0 24 10.769531 24 24s-10.769531 24-24 24zm0-32c-4.417968 0-8 3.585937-8 8 0 4.417969 3.582032 8 8 8 4.414063 0 8-3.582031 8-8 0-4.414063-3.585937-8-8-8zm0 0"/><path d="m144.003906 248.011719c-2.046875 0-4.097656-.785157-5.65625-2.34375-3.128906-3.128907-3.128906-8.183594 0-11.3125l96-96c3.128906-3.128907 8.183594-3.128907 11.3125 0 3.128906 3.128906 3.128906 8.183593 0 11.3125l-96 96c-1.5625 1.558593-3.609375 2.34375-5.65625 2.34375zm0 0"/></g></svg>